<svg id="Group_6896" data-name="Group 6896" xmlns="http://www.w3.org/2000/svg" xmlns:xlink="http://www.w3.org/1999/xlink" width="128.475" height="18.672" viewBox="0 0 128.475 18.672">
  <defs>
    <clipPath id="clip-path">
      <rect id="Rectangle_1200" data-name="Rectangle 1200" width="128.475" height="18.672" fill="#fff"/>
    </clipPath>
  </defs>
  <rect id="Rectangle_1199" data-name="Rectangle 1199" width="5.445" height="18.122" transform="translate(40.891 0.303)" fill="#fff"/>
  <g id="Group_6895" data-name="Group 6895">
    <g id="Group_6894" data-name="Group 6894" clip-path="url(#clip-path)">
      <path id="Path_2534" data-name="Path 2534" d="M155.978,7.479c-.632-1.54-1.21-3.025-1.595-3.767C153.146,1.292,151.551,0,149.021,0s-4.125,1.293-5.362,3.713c-.385.742-.962,2.227-1.595,3.767-1.237,2.97-2.2,4.757-4.07,5.252v5.94c5.06-.8,7.287-4.07,8.965-8.745.275-.77.6-1.678.8-2.2.385-1.017.66-1.622,1.265-1.622s.88.6,1.265,1.622c.192.522.522,1.43.8,2.2,1.677,4.675,3.9,7.947,8.965,8.745v-5.94c-1.87-.495-2.832-2.282-4.07-5.252" transform="translate(-121.22 0.001)" fill="#fff"/>
      <path id="Path_2535" data-name="Path 2535" d="M18.534,7.549V2.489H0v5.06H6.545V20.61H11.99V7.549Z" transform="translate(0 -2.186)" fill="#fff"/>
      <path id="Path_2536" data-name="Path 2536" d="M897.644.7V13.019c0,.358-.137.523-.33.523-.247,0-.468-.358-.825-1.128-.99-2.145-2.062-4.537-3.162-6.655-1.458-2.8-2.75-5.307-6.27-5.307s-5.252,2.365-5.252,6.325V18.821h5.445V6.5c0-.358.137-.522.33-.522.248,0,.467.358.825,1.127.99,2.145,2.062,4.537,3.162,6.655,1.457,2.805,2.75,5.307,6.27,5.307s5.252-2.365,5.252-6.325V.7Z" transform="translate(-774.615 -0.397)" fill="#fff"/>
      <path id="Path_2537" data-name="Path 2537" d="M432.4,11.082c0,.907-.165,1.65-.852,1.65-.8,0-1.32-1.512-2.53-4.647-.853-2.172-1.458-3.63-1.815-4.4a5.906,5.906,0,0,0-10.945,0c-.357.77-.962,2.227-1.815,4.4-1.21,3.135-1.732,4.647-2.53,4.647-.687,0-.852-.742-.852-1.65V.3h-5.445V12.072c0,4.235,2.337,6.6,5.857,6.6,4.125,0,5.775-2.8,7.507-7.37.66-1.76,1.072-2.832,1.375-3.575.385-.962.77-1.622,1.375-1.622s.99.66,1.375,1.622c.3.742.715,1.815,1.375,3.575,1.732,4.565,3.382,7.37,7.507,7.37,3.52,0,5.857-2.365,5.857-6.6V.3H432.4Z" transform="translate(-356.307 0)" fill="#fff"/>
      <path id="Path_2538" data-name="Path 2538" d="M701.394,7.479c-.633-1.54-1.21-3.025-1.595-3.767C698.562,1.292,696.967,0,694.437,0s-4.125,1.293-5.362,3.713c-.385.742-.962,2.227-1.595,3.767-1.237,2.97-2.2,4.757-4.07,5.252v5.94c5.06-.8,7.287-4.07,8.965-8.745.275-.77.6-1.678.8-2.2.385-1.017.66-1.622,1.265-1.622s.88.6,1.265,1.622c.192.522.523,1.43.8,2.2,1.677,4.675,3.9,7.947,8.965,8.745v-5.94c-1.87-.495-2.832-2.282-4.07-5.252" transform="translate(-600.336 0.001)" fill="#fff"/>
    </g>
  </g>
</svg>
